<?xml version="1.0" encoding="iso-8859-1"?>
<!-- Generator: Adobe Illustrator 18.1.1, SVG Export Plug-In . SVG Version: 6.00 Build 0)  -->
<svg version="1.1" id="Capa_1" xmlns="http://www.w3.org/2000/svg" xmlns:xlink="http://www.w3.org/1999/xlink" x="0px" y="0px"
	 viewBox="0 0 21.924 21.924" style="enable-background:new 0 0 21.924 21.924;" xml:space="preserve">
<g>
	<path style="fill:#090609;" d="M13.272,1.312v19.635l7.004-3.922V3.779L13.272,1.312z M19.802,2.749
		c-0.382-0.143-7.008-2.631-7.008-2.631s0.412,0.261,0.412,0.717l7.004,2.554C20.21,3.389,20.181,2.892,19.802,2.749z M11.79,0
		H2.921C2.218,0,1.648,0.571,1.648,1.273V20.65c0,0.702,0.571,1.274,1.273,1.274h8.869c0.702,0,1.272-0.572,1.272-1.274V1.273
		C13.063,0.571,12.492,0,11.79,0z M12.403,20.651c0,0.339-0.273,0.614-0.613,0.614H2.921c-0.339,0-0.614-0.275-0.614-0.614V1.273
		c0-0.339,0.275-0.614,0.614-0.614h8.869c0.34,0,0.613,0.275,0.613,0.614C12.403,1.273,12.403,20.651,12.403,20.651z M3.946,4.935
		h6.866c0.242,0,0.438-0.196,0.438-0.437V2.187c0-0.241-0.196-0.438-0.438-0.438H3.946c-0.241,0-0.437,0.197-0.437,0.438v2.311
		C3.509,4.739,3.705,4.935,3.946,4.935z M9.495,4.187h1.307v0.304H9.495V4.187z M3.946,9.486h6.866c0.242,0,0.438-0.196,0.438-0.437
		V6.738c0-0.241-0.196-0.438-0.438-0.438H3.946c-0.241,0-0.437,0.196-0.437,0.438v2.311C3.509,9.291,3.705,9.486,3.946,9.486z
		 M9.374,8.868h1.307v0.304H9.374V8.868z M7.392,17.183c-0.749,0-1.358,0.609-1.358,1.357c0,0.75,0.609,1.358,1.358,1.358
		S8.75,19.29,8.75,18.54C8.75,17.792,8.141,17.183,7.392,17.183z M7.392,19.24c-0.385,0-0.698-0.313-0.698-0.699
		c0-0.384,0.313-0.697,0.698-0.697s0.698,0.313,0.698,0.697C8.09,18.926,7.777,19.24,7.392,19.24z M3.498,14.892h7.741v0.668H3.498
		V14.892z M3.522,13.208h7.74v0.667h-7.74V13.208z M3.522,11.461h7.74v0.667h-7.74V11.461z"/>
</g>
<g>
</g>
<g>
</g>
<g>
</g>
<g>
</g>
<g>
</g>
<g>
</g>
<g>
</g>
<g>
</g>
<g>
</g>
<g>
</g>
<g>
</g>
<g>
</g>
<g>
</g>
<g>
</g>
<g>
</g>
</svg>
