<svg id="Capa_1" enable-background="new 0 0 512 512" height="512" viewBox="0 0 512 512" width="512" xmlns="http://www.w3.org/2000/svg"><g><path d="m473.231 140.198c-4.971 2.406-7.051 8.386-4.646 13.357 15.537 32.107 23.415 66.573 23.415 102.445 0 130.131-105.869 236-236 236-51.009 0-100.938-16.76-141.642-47.36 5.316-11.151 3.37-24.927-5.851-34.147-11.697-11.696-30.729-11.696-42.427 0-11.697 11.697-11.697 30.729 0 42.427 9.049 9.049 22.682 11.22 33.954 5.946 44.57 34.307 99.66 53.134 155.966 53.134 141.159 0 256-114.841 256-256 0-38.914-8.55-76.312-25.412-111.156-2.405-4.971-8.384-7.051-13.357-4.646z"/><path d="m36.25 366.966c5.024-2.294 7.236-8.227 4.941-13.25-14.062-30.783-21.191-63.66-21.191-97.716 0-130.131 105.869-236 236-236 50.208 0 97.714 15.427 138.073 44.713-7.015 11.542-5.547 26.829 4.419 36.795 11.698 11.697 30.729 11.697 42.427 0 11.697-11.697 11.697-30.729 0-42.427-8.277-8.277-20.225-10.688-30.65-7.252-44.405-33.642-98.204-51.829-154.269-51.829-141.159 0-256 114.841-256 256 0 36.944 7.738 72.616 22.999 106.025 2.283 4.999 8.203 7.247 13.251 4.941z"/><path d="m256 66c-97.806 0-190 77.686-190 190 0 104.031 84.499 190 190 190 105.48 0 190-85.917 190-190 0-104.031-84.499-190-190-190zm-53.524 28.64c-20.665 24.565-33.171 59.625-39.643 91.36h-61.745c19.468-42.911 56.258-76.351 101.388-91.36zm-116.476 161.36c0-17.394 2.631-34.185 7.508-50l65.899-.01c-2.246 16.096-3.407 32.89-3.407 50.01s1.161 33.904 3.407 50h-65.899c-4.877-15.815-7.508-32.606-7.508-50zm15.089 70h61.745c6.47 31.728 18.975 66.792 39.643 91.36-45.131-15.009-81.921-48.449-101.388-91.36zm144.911 98.611c-27.52-7.672-51.173-46.448-62.63-98.611h62.63zm0-118.611h-66.319c-2.388-15.881-3.681-32.688-3.681-50s1.294-34.119 3.681-50h66.319zm0-120h-62.63c11.457-52.164 35.11-90.939 62.63-98.611zm20-98.611c27.52 7.672 51.173 46.448 62.63 98.611h-62.63zm0 118.611h66.319c2.388 15.881 3.681 32.688 3.681 50s-1.294 34.119-3.681 50h-66.319zm0 218.611v-98.621l62.63.01c-11.457 52.164-35.11 90.939-62.63 98.611zm43.524-7.251c20.674-24.575 33.176-59.645 39.643-91.37h61.745c-19.468 42.921-56.258 76.361-101.388 91.37zm116.476-161.36c0 17.394-2.631 34.185-7.508 50h-65.899c2.246-16.096 3.407-32.88 3.407-50s-1.161-33.904-3.407-50h65.899c4.877 15.815 7.508 32.606 7.508 50zm-76.834-70c-6.47-31.728-18.975-66.792-39.643-91.36 45.13 15.009 81.921 48.449 101.387 91.36z"/></g></svg>