<?xml version="1.0" encoding="iso-8859-1"?>
<!-- Generator: Adobe Illustrator 19.0.0, SVG Export Plug-In . SVG Version: 6.00 Build 0)  -->
<svg version="1.1" id="Capa_1" xmlns="http://www.w3.org/2000/svg" xmlns:xlink="http://www.w3.org/1999/xlink" x="0px" y="0px"
	 viewBox="0 0 480 480" style="enable-background:new 0 0 480 480;" xml:space="preserve">
<g>
	<g>
		<path d="M472,188c4.418,0,8-3.582,8-8v-32c0-4.418-3.582-8-8-8H8c-4.418,0-8,3.582-8,8v32c0,4.418,3.582,8,8,8s8,3.582,8,8
			s-3.582,8-8,8s-8,3.582-8,8v96c0,4.418,3.582,8,8,8h8v16c0,4.418,3.582,8,8,8h144c4.418,0,8-3.582,8-8v-16h16v16
			c0,4.418,3.582,8,8,8h256c4.418,0,8-3.582,8-8v-16h8c4.418,0,8-3.582,8-8v-96c0-4.418-3.582-8-8-8s-8-3.582-8-8
			S467.582,188,472,188z M160,324H32v-8h128V324z M448,324H208v-8h240V324z M464,173.368c-12.499,4.411-19.056,18.12-14.645,30.619
			c2.416,6.845,7.8,12.229,14.645,14.645V300H16v-81.368c0.272-0.096,0.512-0.24,0.8-0.344c0.448-0.176,0.872-0.376,1.304-0.584
			c0.886-0.414,1.746-0.882,2.576-1.4c0.392-0.24,0.8-0.48,1.16-0.744c0.945-0.671,1.84-1.409,2.68-2.208
			c0.176-0.168,0.376-0.312,0.544-0.48c0.977-0.989,1.868-2.06,2.664-3.2c0.216-0.32,0.4-0.672,0.608-1
			c0.549-0.871,1.04-1.777,1.472-2.712c0.2-0.44,0.376-0.88,0.552-1.336c0.363-0.939,0.663-1.901,0.896-2.88
			c0.112-0.44,0.24-0.864,0.32-1.312c0.595-2.903,0.595-5.897,0-8.8c-0.08-0.448-0.208-0.872-0.32-1.312
			c-0.233-0.979-0.533-1.941-0.896-2.88c-0.176-0.456-0.352-0.904-0.552-1.344c-0.434-0.931-0.925-1.834-1.472-2.704
			c-0.208-0.328-0.392-0.68-0.608-1c-0.796-1.14-1.687-2.211-2.664-3.2c-0.168-0.168-0.368-0.312-0.544-0.48
			c-0.84-0.799-1.735-1.537-2.68-2.208c-0.376-0.272-0.8-0.504-1.16-0.744c-0.83-0.518-1.69-0.986-2.576-1.4
			c-0.432-0.2-0.856-0.408-1.304-0.584c-0.264-0.104-0.504-0.248-0.8-0.344V156h448V173.368z"/>
	</g>
</g>
<g>
	<g>
		<path d="M264,172h-48c-4.418,0-8,3.582-8,8v80c0,4.418,3.582,8,8,8h48c4.418,0,8-3.582,8-8v-80C272,175.582,268.418,172,264,172z
			 M256,252h-32v-64h32V252z"/>
	</g>
</g>
<g>
	<g>
		<path d="M344,172h-48c-4.418,0-8,3.582-8,8v80c0,4.418,3.582,8,8,8h48c4.418,0,8-3.582,8-8v-80C352,175.582,348.418,172,344,172z
			 M336,252h-32v-64h32V252z"/>
	</g>
</g>
<g>
	<g>
		<path d="M104,172H56c-4.418,0-8,3.582-8,8v80c0,4.418,3.582,8,8,8h48c4.418,0,8-3.582,8-8v-80C112,175.582,108.418,172,104,172z
			 M96,252H64v-64h32V252z"/>
	</g>
</g>
<g>
	<g>
		<path d="M184,172h-48c-4.418,0-8,3.582-8,8v80c0,4.418,3.582,8,8,8h48c4.418,0,8-3.582,8-8v-80C192,175.582,188.418,172,184,172z
			 M176,252h-32v-64h32V252z"/>
	</g>
</g>
<g>
	<g>
		<path d="M424,172h-48c-4.418,0-8,3.582-8,8v80c0,4.418,3.582,8,8,8h48c4.418,0,8-3.582,8-8v-80C432,175.582,428.418,172,424,172z
			 M416,252h-32v-64h32V252z"/>
	</g>
</g>
<g>
</g>
<g>
</g>
<g>
</g>
<g>
</g>
<g>
</g>
<g>
</g>
<g>
</g>
<g>
</g>
<g>
</g>
<g>
</g>
<g>
</g>
<g>
</g>
<g>
</g>
<g>
</g>
<g>
</g>
</svg>
