<svg height="512" viewBox="0 0 512 512" width="512" xmlns="http://www.w3.org/2000/svg"><g id="Outline"><path d="m488 96h-464a8 8 0 0 0 -8 8v304a8 8 0 0 0 8 8h16a8 8 0 0 0 7.155-4.422l5.789-11.578h6.112l5.789 11.578a8 8 0 0 0 7.155 4.422h16a8 8 0 0 0 8-8v-72h32v40a8 8 0 0 0 8 8h160a8 8 0 0 0 8-8v-40h184a8 8 0 0 0 8-8v-224a8 8 0 0 0 -8-8zm-408 232v72h-3.056l-5.789-11.578a8 8 0 0 0 -7.155-4.422h-16a8 8 0 0 0 -7.155 4.422l-5.789 11.578h-3.056v-288h48zm208 40h-16v-16h-16v16h-16v-16h-16v16h-16v-16h-16v16h-16v-16h-16v16h-16v-32h144zm192-48h-384v-208h384z"/><path d="m48 264h16v48h-16z"/><path d="m48 328h16v16h-16z"/><path d="m48 232h16v16h-16z"/><path d="m384 296a80 80 0 1 0 -80-80 80.091 80.091 0 0 0 80 80zm-32.4-24.843a38.719 38.719 0 0 1 7.716-18.757 43.742 43.742 0 0 0 17.229 6.954 54.824 54.824 0 0 0 7.034 20.635 63.587 63.587 0 0 1 -31.979-8.832zm49.524 6.5-2.475-3.712a38.96 38.96 0 0 1 -5.936-14.813 43.775 43.775 0 0 0 16.658-7.212 54.817 54.817 0 0 0 19.547 9.62 64 64 0 0 1 -27.799 16.116zm38.565-30.167-4.356-.871a38.96 38.96 0 0 1 -14.689-6.289 43.74 43.74 0 0 0 6.715-16.87 54.794 54.794 0 0 0 20.635-7.034 63.574 63.574 0 0 1 -8.31 31.063zm-10.145-76.4a64.012 64.012 0 0 1 16.117 27.794l-3.712 2.475a39.012 39.012 0 0 1 -14.812 5.94 43.768 43.768 0 0 0 -7.213-16.661 54.813 54.813 0 0 0 9.615-19.551zm-14.05-10.771-.872 4.357a38.944 38.944 0 0 1 -6.288 14.688 43.748 43.748 0 0 0 -16.516-6.652 54.637 54.637 0 0 0 -6.206-20.668 63.553 63.553 0 0 1 29.877 8.272zm-3.494 55.681a28 28 0 1 1 -28-28 28.032 28.032 0 0 1 28 28zm-44.11-61.943a38.728 38.728 0 0 1 7.828 18.736 43.748 43.748 0 0 0 -16.793 7.081 54.64 54.64 0 0 0 -18.985-10.227 63.959 63.959 0 0 1 27.95-15.59zm-39.047 29.543a38.723 38.723 0 0 1 18.757 7.71 43.751 43.751 0 0 0 -6.891 16.877 54.637 54.637 0 0 0 -20.668 6.206 63.561 63.561 0 0 1 8.802-30.793zm11.95 40.687a43.754 43.754 0 0 0 7.081 16.793 54.623 54.623 0 0 0 -10.227 18.985 63.961 63.961 0 0 1 -15.59-27.949 38.714 38.714 0 0 1 18.736-7.834z"/><path d="m304 128h16v16h-16z"/><path d="m448 128h16v16h-16z"/><path d="m304 288h16v16h-16z"/><path d="m448 288h16v16h-16z"/><path d="m192 296a80 80 0 1 0 -80-80 80.091 80.091 0 0 0 80 80zm-32.4-24.843a38.719 38.719 0 0 1 7.716-18.757 43.742 43.742 0 0 0 17.229 6.954 54.824 54.824 0 0 0 7.034 20.635 63.587 63.587 0 0 1 -31.979-8.832zm49.524 6.5-2.475-3.712a38.96 38.96 0 0 1 -5.936-14.813 43.775 43.775 0 0 0 16.658-7.212 54.817 54.817 0 0 0 19.547 9.62 64 64 0 0 1 -27.799 16.116zm38.565-30.167-4.356-.871a38.96 38.96 0 0 1 -14.689-6.289 43.74 43.74 0 0 0 6.715-16.87 54.794 54.794 0 0 0 20.635-7.034 63.574 63.574 0 0 1 -8.31 31.063zm-10.145-76.4a64.012 64.012 0 0 1 16.117 27.794l-3.712 2.475a38.956 38.956 0 0 1 -14.813 5.937 43.76 43.76 0 0 0 -7.212-16.658 54.813 54.813 0 0 0 9.615-19.551zm-14.05-10.771-.872 4.357a38.944 38.944 0 0 1 -6.288 14.688 43.748 43.748 0 0 0 -16.516-6.652 54.637 54.637 0 0 0 -6.206-20.668 63.553 63.553 0 0 1 29.877 8.272zm-3.494 55.681a28 28 0 1 1 -28-28 28.032 28.032 0 0 1 28 28zm-44.11-61.943a38.728 38.728 0 0 1 7.828 18.736 43.748 43.748 0 0 0 -16.793 7.081 54.64 54.64 0 0 0 -18.985-10.227 63.959 63.959 0 0 1 27.95-15.59zm-39.047 29.543a38.723 38.723 0 0 1 18.757 7.71 43.751 43.751 0 0 0 -6.891 16.877 54.637 54.637 0 0 0 -20.668 6.206 63.561 63.561 0 0 1 8.802-30.793zm11.95 40.687a43.754 43.754 0 0 0 7.081 16.793 54.623 54.623 0 0 0 -10.227 18.985 63.961 63.961 0 0 1 -15.59-27.949 38.714 38.714 0 0 1 18.736-7.834z"/><path d="m112 128h16v16h-16z"/><path d="m256 128h16v16h-16z"/><path d="m112 288h16v16h-16z"/><path d="m256 288h16v16h-16z"/><path d="m48 192h16v16h-16z"/><path d="m48 160h16v16h-16z"/><path d="m48 128h16v16h-16z"/></g></svg>