<svg height="512pt" viewBox="0 -17 512 512" width="512pt" xmlns="http://www.w3.org/2000/svg"><path d="m494.5 39.238281h-3.5v-9.734375c0-9.648437-7.851562-17.5-17.5-17.5h-47c-9.648438 0-17.5 7.851563-17.5 17.5v9.734375h-11.875c-1.726562-7.847656-8.726562-13.738281-17.082031-13.738281h-25c-8.355469 0-15.355469 5.890625-17.082031 13.738281h-14.378907c-1.726562-7.847656-8.722656-13.738281-17.082031-13.738281h-25c-8.355469 0-15.355469 5.890625-17.082031 13.738281h-11.917969v-20.738281c0-4.140625-3.359375-7.5-7.5-7.5s-7.5 3.359375-7.5 7.5v10h-10.324219v-11c0-9.648438-7.851562-17.5-17.5-17.5h-41c-9.652343 0-17.5 7.851562-17.5 17.5v11h-10.328125v-10c0-4.140625-3.359375-7.5-7.5-7.5-4.144531 0-7.5 3.359375-7.5 7.5v20.738281h-108.347656c-9.648438 0-17.5 7.851563-17.5 17.5v404.523438c0 9.648437 7.851562 17.5 17.5 17.5h373.800781c4.144531 0 7.5-3.359375 7.5-7.5 0-4.144531-3.355469-7.5-7.5-7.5h-373.800781c-1.378906 0-2.5-1.125-2.5-2.5v-404.523438c0-1.378906 1.121094-2.5 2.5-2.5h108.457031c.953125 8.753907 8.386719 15.59375 17.390625 15.59375h91.652344c9.003906 0 16.4375-6.839843 17.390625-15.59375h11.609375v37.488281c0 9.648438 7.851562 17.5 17.5 17.5h25c9.648438 0 17.5-7.851562 17.5-17.5v-37.488281h13.542969v37.488281c0 9.648438 7.851562 17.5 17.5 17.5h25c9.648437 0 17.5-7.851562 17.5-17.5v-37.488281h96.957031c1.378906 0 2.5 1.121094 2.5 2.5v404.523438c0 1.375-1.121094 2.5-2.5 2.5h-67.800781c-4.144531 0-7.5 3.355469-7.5 7.5 0 4.140625 3.355469 7.5 7.5 7.5h67.800781c9.648438 0 17.5-7.851563 17.5-17.5v-404.523438c0-9.648437-7.851562-17.5-17.5-17.5zm-70.5-9.734375c0-1.378906 1.121094-2.5 2.5-2.5h47c1.378906 0 2.5 1.121094 2.5 2.5v9.734375h-52zm-68.957031 10.996094h25c1.378906 0 2.5 1.121094 2.5 2.5v26.832031h-30v-26.832031c0-1.378906 1.121093-2.5 2.5-2.5zm-73.542969 0h25c1.378906 0 2.5 1.121094 2.5 2.5v26.832031h-30v-26.832031c0-1.378906 1.121094-2.5 2.5-2.5zm-115.324219-23c0-1.378906 1.121094-2.5 2.5-2.5h41c1.375 0 2.5 1.121094 2.5 2.5v11h-46zm71.324219 34.832031c0 1.378907-1.121094 2.5-2.5 2.5h-91.652344c-1.378906 0-2.5-1.121093-2.5-2.5v-8.832031h96.652344zm69 41.894531h-25c-1.378906 0-2.5-1.121093-2.5-2.5v-6.894531h30v6.894531c0 1.378907-1.121094 2.5-2.5 2.5zm73.542969 0h-25c-1.378907 0-2.5-1.121093-2.5-2.5v-6.894531h30v6.894531c0 1.378907-1.121094 2.5-2.5 2.5zm0 0"/><path d="m309.3125 253.578125c-4.140625 0-7.5 3.359375-7.5 7.5v159.445313c0 9.648437 7.851562 17.5 17.5 17.5h8.375c9.648438 0 17.5-7.851563 17.5-17.5v-271.621094c0-9.648438-7.851562-17.5-17.5-17.5h-8.375c-9.648438 0-17.5 7.851562-17.5 17.5v76.78125c0 4.140625 3.359375 7.5 7.5 7.5s7.5-3.359375 7.5-7.5v-50.925782h13.375v219.910157h-13.375v-133.589844c0-4.140625-3.355469-7.5-7.5-7.5zm7.5-93.820313v-10.855468c0-1.378906 1.121094-2.5 2.5-2.5h8.375c1.375 0 2.5 1.121094 2.5 2.5v10.855468zm13.375 249.910157v10.855469c0 1.378906-1.121094 2.5-2.5 2.5h-8.375c-1.375 0-2.5-1.121094-2.5-2.5v-10.855469zm0 0"/><path d="m42.335938 145.214844c0 9.648437 7.847656 17.5 17.5 17.5h177.097656c9.648437 0 17.5-7.851563 17.5-17.5v-26.371094c0-9.652344-7.851563-17.5-17.5-17.5h-177.097656c-9.652344 0-17.5 7.847656-17.5 17.5zm43.351562 2.5v-31.371094h125.390625v31.371094zm140.980469-31.371094h10.265625c1.378906 0 2.5 1.121094 2.5 2.5v26.371094c0 1.378906-1.121094 2.5-2.5 2.5h-10.855469v-31.371094zm-169.332031 2.5c0-1.378906 1.121093-2.5 2.5-2.5h10.851562v31.371094h-10.851562c-1.378907 0-2.5-1.121094-2.5-2.5zm0 0"/><path d="m385.914062 131.402344h-8.371093c-9.648438 0-17.5 7.851562-17.5 17.5v271.621094c0 9.648437 7.851562 17.5 17.5 17.5h8.371093c9.652344 0 17.5-7.851563 17.5-17.5v-271.621094c0-9.648438-7.847656-17.5-17.5-17.5zm-10.871093 43.355468h13.371093v219.910157h-13.371093zm0-25.855468c0-1.378906 1.121093-2.5 2.5-2.5h8.371093c1.378907 0 2.5 1.121094 2.5 2.5v10.855468h-13.371093zm13.371093 271.621094c0 1.378906-1.121093 2.5-2.5 2.5h-8.371093c-1.378907 0-2.5-1.121094-2.5-2.5v-10.855469h13.371093zm0 0"/><path d="m418.269531 420.523438c0 9.648437 7.851563 17.5 17.5 17.5h8.375c9.648438 0 17.5-7.851563 17.5-17.5v-271.621094c0-9.648438-7.851562-17.5-17.5-17.5h-8.375c-9.648437 0-17.5 7.851562-17.5 17.5zm28.375-25.855469h-13.375v-219.910157h13.375zm0 25.855469c0 1.378906-1.121093 2.5-2.5 2.5h-8.375c-1.375 0-2.5-1.121094-2.5-2.5v-10.855469h13.375zm-13.375-271.621094c0-1.378906 1.125-2.5 2.5-2.5h8.375c1.378907 0 2.5 1.121094 2.5 2.5v10.855468h-13.375zm0 0"/><path d="m461.644531 95.359375v-18.027344c0-4.140625-3.359375-7.5-7.5-7.5s-7.5 3.359375-7.5 7.5v18.027344c0 4.144531 3.359375 7.5 7.5 7.5s7.5-3.355469 7.5-7.5zm0 0"/><path d="m433.269531 95.359375v-18.027344c0-4.140625-3.355469-7.5-7.5-7.5-4.140625 0-7.5 3.359375-7.5 7.5v18.027344c0 4.144531 3.359375 7.5 7.5 7.5 4.144531 0 7.5-3.355469 7.5-7.5zm0 0"/><path d="m203.753906 351.484375c9.648438 0 17.5-7.851563 17.5-17.5v-108.890625c0-9.648438-7.851562-17.5-17.5-17.5h-108.886718c-9.648438 0-17.5 7.851562-17.5 17.5v25.589844c0 4.140625 3.355468 7.5 7.5 7.5 4.140624 0 7.5-3.359375 7.5-7.5v-25.589844c0-1.378906 1.121093-2.5 2.5-2.5h108.886718c1.378906 0 2.5 1.121094 2.5 2.5v108.890625c0 1.375-1.121094 2.5-2.5 2.5h-108.886718c-1.378907 0-2.5-1.125-2.5-2.5v-47.90625c0-4.140625-3.359376-7.5-7.5-7.5-4.144532 0-7.5 3.359375-7.5 7.5v47.90625c0 9.648437 7.851562 17.5 17.5 17.5zm0 0"/><path d="m197.753906 441.894531c4.144532 0 7.5-3.359375 7.5-7.5v-3.167969h37.167969c4.140625 0 7.5-3.359374 7.5-7.5v-28.816406l15.578125-7.011718c2.691406-1.210938 4.421875-3.886719 4.421875-6.835938v-160.667969c0-4.140625-3.359375-7.5-7.5-7.5h-17.898437c-5.167969-17.496093-21.371094-30.300781-40.515626-30.300781h-109.394531c-23.296875 0-42.246093 18.953125-42.246093 42.246094v109.394531c0 17.109375 10.230468 31.867187 24.886718 38.5v15.054687c0 9.648438 7.851563 17.5 17.5 17.5h17.628906c4.863282 0 9.542969-2.046874 12.847657-5.613281l21.457031-23.195312h5.246094l21.460937 23.195312c3.300781 3.566407 7.980469 5.613281 12.84375 5.613281h4.019531v10.9375h-.328124c-4.144532 0-7.5 3.359376-7.5 7.5 0 4.140626 3.355468 7.5 7.5 7.5h.328124v3.167969c-.003906 4.140625 3.355469 7.5 7.496094 7.5zm-130.386718-107.660156v-109.394531c0-15.023438 12.222656-27.246094 27.246093-27.246094h109.390625c15.027344 0 27.25 12.222656 27.25 27.25v109.394531c0 15.023438-12.222656 27.246094-27.246094 27.246094h-109.394531c-15.023437 0-27.246093-12.222656-27.246093-27.25zm46.851562 55.253906c-.472656.507813-1.140625.800781-1.835938.800781h-17.628906c-1.375 0-2.5-1.121093-2.5-2.5v-11.375c.78125.042969 1.566406.066407 2.359375.066407h31.640625zm70.183594 0-12.035156-13.003906h31.640624c.792969 0 1.578126-.027344 2.359376-.070313v11.375c0 1.378907-1.125 2.5-2.5 2.5h-17.628907c-.695312 0-1.363281-.292968-1.835937-.800781zm20.851562 15.730469c9.003906-.710938 16.113282-8.246094 16.113282-17.429688v-15.054687c14.65625-6.632813 24.886718-21.390625 24.886718-38.5v-106.339844h8.667969v148.316407l-15.578125 7.011718c-2.691406 1.210938-4.421875 3.886719-4.421875 6.835938v26.167968h-29.667969zm0 0"/><path d="m59.867188 431.285156c4.140624 0 7.5-3.359375 7.5-7.5v-.113281c0-4.144531-3.359376-7.5-7.5-7.5-4.144532 0-7.5 3.355469-7.5 7.5v.113281c0 4.140625 3.355468 7.5 7.5 7.5zm0 0"/><path d="m88.222656 416.171875c-4.144531 0-7.5 3.355469-7.5 7.5v.113281c0 4.140625 3.355469 7.5 7.5 7.5 4.140625 0 7.5-3.359375 7.5-7.5v-.113281c0-4.144531-3.359375-7.5-7.5-7.5zm0 0"/><path d="m109.074219 423.671875v.113281c0 4.140625 3.359375 7.5 7.5 7.5 4.144531 0 7.5-3.359375 7.5-7.5v-.113281c0-4.144531-3.355469-7.5-7.5-7.5-4.140625 0-7.5 3.355469-7.5 7.5zm0 0"/><path d="m137.429688 423.671875v.113281c0 4.140625 3.355468 7.5 7.5 7.5 4.140624 0 7.5-3.359375 7.5-7.5v-.113281c0-4.144531-3.359376-7.5-7.5-7.5-4.144532 0-7.5 3.355469-7.5 7.5zm0 0"/><path d="m278.179688 123.316406h-.113282c-4.144531 0-7.5 3.355469-7.5 7.5 0 4.140625 3.355469 7.5 7.5 7.5h.113282c4.140624 0 7.5-3.359375 7.5-7.5 0-4.144531-3.359376-7.5-7.5-7.5zm0 0"/><path d="m278.179688 151.667969h-.113282c-4.144531 0-7.5 3.359375-7.5 7.5 0 4.144531 3.355469 7.5 7.5 7.5h.113282c4.140624 0 7.5-3.355469 7.5-7.5 0-4.140625-3.359376-7.5-7.5-7.5zm0 0"/><path d="m285.679688 187.523438c0-4.140626-3.359376-7.5-7.5-7.5h-.113282c-4.144531 0-7.5 3.359374-7.5 7.5 0 4.140624 3.355469 7.5 7.5 7.5h.113282c4.140624 0 7.5-3.359376 7.5-7.5zm0 0"/><path d="m251.066406 180.023438c-4.144531 0-7.5 3.359374-7.5 7.5 0 4.140624 3.355469 7.5 7.5 7.5h.113282c4.140624 0 7.5-3.359376 7.5-7.5 0-4.140626-3.359376-7.5-7.5-7.5zm0 0"/><path d="m73.667969 84.832031c4.140625 0 7.5-3.355469 7.5-7.5 0-4.140625-3.359375-7.5-7.5-7.5h-23.832031c-4.144532 0-7.5 3.359375-7.5 7.5 0 4.144531 3.355468 7.5 7.5 7.5zm0 0"/><path d="m177 323.558594c9.648438 0 17.5-7.847656 17.5-17.5v-12.734375c0-9.648438-7.851562-17.5-17.5-17.5h-31.332031c-9.648438 0-17.5 7.851562-17.5 17.5v12.734375c0 9.652344 7.851562 17.5 17.5 17.5zm-33.832031-17.5v-12.734375c0-1.375 1.121093-2.5 2.5-2.5h31.332031c1.378906 0 2.5 1.125 2.5 2.5v12.734375c0 1.378906-1.121094 2.5-2.5 2.5h-31.332031c-1.378907 0-2.5-1.121094-2.5-2.5zm0 0"/><path d="m273.5 438.023438c4.140625 0 7.5-3.359376 7.5-7.5v-27.394532c0-4.144531-3.359375-7.5-7.5-7.5s-7.5 3.355469-7.5 7.5v27.394532c0 4.140624 3.359375 7.5 7.5 7.5zm0 0"/></svg>