<svg width="339.004" height="339.004" xmlns="http://www.w3.org/2000/svg" xml:space="preserve" version="1.1">

 <g>
  <title>Layer 1</title>
  <path fill="#000000" stroke="null" id="svg_1" d="m190.12263,214.10246c0.15127,-20.59446 -7.98976,-36.88191 -24.22806,-48.38394c-12.54174,-8.85593 -27.76183,-13.47548 -42.4828,-17.91457c-30.66594,-9.29669 -39.5618,-14.19344 -39.5618,-28.85836c0,-16.33505 21.22873,-22.14711 39.40208,-22.14711c13.23513,0 28.46213,4.11505 37.91854,10.21353l18.74772,-29.03497c-12.35898,-8.01203 -29.27378,-13.47701 -45.97664,-15.17325l0,-27.11297l-34.58365,0l0,29.01424c-30.74196,6.76269 -50.10782,26.85497 -50.10782,54.24053c0,19.17927 7.9698,34.38938 23.64294,45.11739c11.92052,8.19018 26.45874,12.58781 40.50245,16.84569c30.07928,9.09166 42.2939,14.6319 42.15492,32.97955l-0.00077,0.13515c0,15.39978 -20.40787,20.87397 -37.89166,20.87397c-16.5155,0 -34.47538,-7.23801 -44.65589,-17.99981l-25.12417,23.76503c12.89266,13.63596 31.62425,23.27666 51.47925,27.05538l0,28.28706l34.58442,0l0,-27.67813c34.16055,-4.88984 56.14717,-25.45589 56.18096,-54.22441z"/>
  <g id="svg_2"/>
  <g id="svg_3"/>
  <g id="svg_4"/>
  <g id="svg_5"/>
  <g id="svg_6"/>
  <g id="svg_7"/>
  <g id="svg_8"/>
  <g id="svg_9"/>
  <g id="svg_10"/>
  <g id="svg_11"/>
  <g id="svg_12"/>
  <g id="svg_13"/>
  <g id="svg_14"/>
  <g id="svg_15"/>
  <g id="svg_16"/>
  <g stroke="null" id="svg_19">
   <g stroke="null" id="svg_18">
    <path stroke="null" id="svg_17" d="m313.11588,149.59545l-50.81164,-95.20653c-0.4776,-0.89444 -1.12257,-1.38892 -1.79802,-1.38892c-0.67545,0 -1.32066,0.50429 -1.79802,1.39828l-50.6595,95.19717c-0.7264,1.36038 -0.93972,3.40519 -0.54855,5.18425c0.39617,1.77862 1.32066,2.92988 2.34657,2.92988l27.93523,0l0,118.90149c0,2.62534 1.13781,4.7562 2.53965,4.7562l40.63326,0c1.40184,0 2.53965,-2.13086 2.53965,-4.7562l0,-118.90193l27.82857,0c1.02591,0 1.95039,-1.16063 2.34657,-2.93924c0.39617,-1.77862 0.17261,-3.81406 -0.55379,-5.17444z"/>
   </g>
  </g>
 </g>
</svg>