<svg xmlns="http://www.w3.org/2000/svg" height="750pt" version="1.1" viewBox="0 0 750 750" width="750pt">
<g id="surface1">
<path d="M 637.5 71.0625 L 637.5 0 L 612.5 0 L 612.5 63.5 C 608.359375 62.867188 604.1875 62.539062 600 62.5 L 575 62.5 L 575 0 L 550 0 L 550 62.5 L 512.5 62.5 L 512.5 0 L 487.5 0 L 487.5 62.5 L 450 62.5 L 450 0 L 425 0 L 425 62.5 L 387.5 62.5 L 387.5 0 L 362.5 0 L 362.5 62.5 L 325 62.5 L 325 0 L 300 0 L 300 62.5 L 262.5 62.5 L 262.5 0 L 237.5 0 L 237.5 62.5 L 200 62.5 L 200 0 L 175 0 L 175 62.5 L 150 62.5 C 145.8125 62.539062 141.640625 62.867188 137.5 63.5 L 137.5 0 L 112.5 0 L 112.5 71.0625 C 94.355469 79.730469 79.730469 94.355469 71.0625 112.5 L 0 112.5 L 0 137.5 L 63.5 137.5 C 62.867188 141.640625 62.539062 145.8125 62.5 150 L 62.5 175 L 0 175 L 0 200 L 62.5 200 L 62.5 237.5 L 0 237.5 L 0 262.5 L 62.5 262.5 L 62.5 300 L 0 300 L 0 325 L 62.5 325 L 62.5 362.5 L 0 362.5 L 0 387.5 L 62.5 387.5 L 62.5 425 L 0 425 L 0 450 L 62.5 450 L 62.5 487.5 L 0 487.5 L 0 512.5 L 62.5 512.5 L 62.5 550 L 0 550 L 0 575 L 62.5 575 L 62.5 600 C 62.539062 604.1875 62.867188 608.359375 63.5 612.5 L 0 612.5 L 0 637.5 L 71.0625 637.5 C 79.730469 655.644531 94.355469 670.269531 112.5 678.9375 L 112.5 750 L 137.5 750 L 137.5 686.5 C 141.640625 687.132812 145.8125 687.460938 150 687.5 L 175 687.5 L 175 750 L 200 750 L 200 687.5 L 237.5 687.5 L 237.5 750 L 262.5 750 L 262.5 687.5 L 300 687.5 L 300 750 L 325 750 L 325 687.5 L 362.5 687.5 L 362.5 750 L 387.5 750 L 387.5 687.5 L 425 687.5 L 425 750 L 450 750 L 450 687.5 L 487.5 687.5 L 487.5 750 L 512.5 750 L 512.5 687.5 L 550 687.5 L 550 750 L 575 750 L 575 687.5 L 600 687.5 C 604.1875 687.460938 608.359375 687.132812 612.5 686.5 L 612.5 750 L 637.5 750 L 637.5 678.9375 C 655.644531 670.269531 670.269531 655.644531 678.9375 637.5 L 750 637.5 L 750 612.5 L 686.5 612.5 C 687.132812 608.359375 687.460938 604.1875 687.5 600 L 687.5 575 L 750 575 L 750 550 L 687.5 550 L 687.5 512.5 L 750 512.5 L 750 487.5 L 687.5 487.5 L 687.5 450 L 750 450 L 750 425 L 687.5 425 L 687.5 387.5 L 750 387.5 L 750 362.5 L 687.5 362.5 L 687.5 325 L 750 325 L 750 300 L 687.5 300 L 687.5 262.5 L 750 262.5 L 750 237.5 L 687.5 237.5 L 687.5 200 L 750 200 L 750 175 L 687.5 175 L 687.5 150 C 687.460938 145.8125 687.132812 141.640625 686.5 137.5 L 750 137.5 L 750 112.5 L 678.9375 112.5 C 670.269531 94.355469 655.644531 79.730469 637.5 71.0625 Z M 662.5 600 C 662.457031 634.5 634.5 662.457031 600 662.5 L 150 662.5 C 115.5 662.457031 87.542969 634.5 87.5 600 L 87.5 150 C 87.542969 115.5 115.5 87.542969 150 87.5 L 600 87.5 C 634.5 87.542969 662.457031 115.5 662.5 150 Z M 662.5 600 " style=" stroke:none;fill-rule:nonzero;fill:rgb(0%,0%,0%);fill-opacity:1;" />
<path d="M 587.5 125 L 162.5 125 C 141.792969 125 125 141.792969 125 162.5 L 125 587.5 C 125 608.207031 141.792969 625 162.5 625 L 587.5 625 C 608.207031 625 625 608.207031 625 587.5 L 625 162.5 C 625 141.792969 608.207031 125 587.5 125 Z M 600 587.5 C 600 594.40625 594.40625 600 587.5 600 L 162.5 600 C 155.59375 600 150 594.40625 150 587.5 L 150 162.5 C 150 155.59375 155.59375 150 162.5 150 L 587.5 150 C 594.40625 150 600 155.59375 600 162.5 Z M 600 587.5 " style=" stroke:none;fill-rule:nonzero;fill:rgb(0%,0%,0%);fill-opacity:1;" />
<path d="M 550 175 L 575 175 L 575 200 L 550 200 Z M 550 175 " style=" stroke:none;fill-rule:nonzero;fill:rgb(0%,0%,0%);fill-opacity:1;" />
<path d="M 175 550 L 200 550 L 200 575 L 175 575 Z M 175 550 " style=" stroke:none;fill-rule:nonzero;fill:rgb(0%,0%,0%);fill-opacity:1;" />
<path d="M 175 200 L 175 237.5 L 200 237.5 L 200 200 L 237.5 200 L 237.5 175 L 200 175 C 186.191406 175 175 186.191406 175 200 Z M 175 200 " style=" stroke:none;fill-rule:nonzero;fill:rgb(0%,0%,0%);fill-opacity:1;" />
<path d="M 550 550 L 512.5 550 L 512.5 575 L 575 575 L 575 512.5 L 550 512.5 Z M 550 550 " style=" stroke:none;fill-rule:nonzero;fill:rgb(0%,0%,0%);fill-opacity:1;" />
</g>
</svg>