<svg height="512pt" viewBox="-48 0 512 512" width="512pt" xmlns="http://www.w3.org/2000/svg"><path d="m235.355469 164.601562c0-15.195312-12.363281-27.558593-27.558594-27.558593s-27.558594 12.359375-27.558594 27.558593v58.699219h55.113281v-58.699219zm0 0"/><path d="m405.617188 29.914062c-3.433594-1.21875-85.414063-29.914062-197.820313-29.914062s-194.386719 28.695312-197.824219 29.914062c-5.976562 2.128907-9.972656 7.789063-9.972656 14.136719v374.257813c0 5.429687 2.9375 10.4375 7.679688 13.089844 1.457031.816406 36.113281 20.152343 77.796874 39.820312 57.34375 27.058594 98.5 40.78125 122.320313 40.78125s64.976563-13.722656 122.320313-40.78125c41.679687-19.667969 76.339843-39.003906 77.792968-39.820312 4.742188-2.652344 7.683594-7.660157 7.683594-13.089844v-374.257813c0-6.347656-3.996094-12.007812-9.976562-14.136719zm-304.308594 208.382813c0-8.28125 6.714844-15 15-15h13.929687v-58.695313c0-42.835937 34.726563-77.558593 77.558594-77.558593 42.835937 0 77.558594 34.722656 77.558594 77.558593v58.699219h13.929687c8.285156 0 15 6.714844 15 15v122.433594c0 8.285156-6.714844 15-15 15h-182.976562c-8.285156 0-15-6.714844-15-15zm0 0"/><path d="m207.796875 266.019531c-8.285156 0-15 6.71875-15 15v37.714844c0 8.285156 6.714844 15 15 15 8.28125 0 15-6.714844 15-15v-37.714844c0-8.285156-6.71875-15-15-15zm0 0"/></svg>